{
	"asset":{
		"generator":"Khronos glTF Blender I/O v4.0.44",
		"version":"2.0"
	},
	"scene":0,
	"scenes":[
		{
			"name":"Scene",
			"nodes":[
				0,
				1,
				2,
				3,
				4,
				5,
				6,
				7,
				8,
				9,
				10,
				11,
				12
			]
		}
	],
	"nodes":[
		{
			"camera":0,
			"name":"1_CAM",
			"rotation":[
				0.00016037392197176814,
				0.9998053908348083,
				-0.017461979761719704,
				0.009182389825582504
			],
			"translation":[
				2.2061476707458496,
				1.3200000524520874,
				-2.275548219680786
			]
		},
		{
			"name":"1_HANDLE",
			"rotation":[
				0,
				0.9668582081794739,
				0,
				0.2553139626979828
			],
			"translation":[
				2.2061476707458496,
				1.3200000524520874,
				-2.275548219680786
			]
		},
		{
			"name":"1_ROT",
			"rotation":[
				0,
				0.9668582081794739,
				0,
				0.25531402230262756
			]
		},
		{
			"camera":1,
			"name":"2_CAM",
			"rotation":[
				0.0025972381699830294,
				-0.6696236729621887,
				0.002341712825000286,
				0.7426923513412476
			],
			"translation":[
				-1.2228435277938843,
				1.3210692405700684,
				-2.0034639835357666
			]
		},
		{
			"name":"2_HANDLE",
			"rotation":[
				0,
				-0.48625898361206055,
				0,
				0.8738147616386414
			],
			"translation":[
				-1.2228435277938843,
				1.3210692405700684,
				-2.0034639835357666
			]
		},
		{
			"name":"2_ROT",
			"rotation":[
				0,
				-0.48625898361206055,
				0,
				0.8738147616386414
			]
		},
		{
			"camera":2,
			"name":"3_CAM",
			"rotation":[
				-0.01096224132925272,
				0.9201479554176331,
				0.3905644416809082,
				0.025826426222920418
			],
			"translation":[
				-2.8229804039001465,
				1.2859665155410767,
				-1.7905347347259521
			]
		},
		{
			"name":"3_HANDLE",
			"rotation":[
				-0.0009064368787221611,
				-0.6892198920249939,
				-0.031007835641503334,
				0.7238878607749939
			],
			"translation":[
				-2.8229804039001465,
				1.2859665155410767,
				-1.7905347347259521
			]
		},
		{
			"name":"3_ROT",
			"rotation":[
				-0.0009064381010830402,
				-0.6892198324203491,
				-0.031007835641503334,
				0.7238879203796387
			]
		},
		{
			"camera":3,
			"name":"4_CAM",
			"rotation":[
				-0.024401282891631126,
				-0.04006033390760422,
				-0.0009786010487005115,
				0.9988988041877747
			],
			"translation":[
				-2.532956600189209,
				1.3210692405700684,
				0.23248551785945892
			]
		},
		{
			"name":"4_HANDLE",
			"rotation":[
				0,
				-0.9997745752334595,
				0,
				0.02123260125517845
			],
			"translation":[
				-2.532956600189209,
				1.3210692405700684,
				0.23248551785945892
			]
		},
		{
			"name":"4_ROT",
			"rotation":[
				0,
				-0.9997745752334595,
				0,
				0.021232720464468002
			]
		},
		{
			"mesh":0,
			"name":"Plane4"
		}
	],
	"cameras":[
		{
			"name":"Camera",
			"perspective":{
				"aspectRatio":1.7777777777777777,
				"yfov":1.024778957977204,
				"zfar":1000,
				"znear":0.10000000149011612
			},
			"type":"perspective"
		},
		{
			"name":"Camera.001",
			"perspective":{
				"aspectRatio":1.7777777777777777,
				"yfov":1.024778957977204,
				"zfar":1000,
				"znear":0.10000000149011612
			},
			"type":"perspective"
		},
		{
			"name":"Camera.002",
			"perspective":{
				"aspectRatio":1.7777777777777777,
				"yfov":1.024778957977204,
				"zfar":1000,
				"znear":0.10000000149011612
			},
			"type":"perspective"
		},
		{
			"name":"Camera.003",
			"perspective":{
				"aspectRatio":1.7777777777777777,
				"yfov":1.024778957977204,
				"zfar":1000,
				"znear":0.10000000149011612
			},
			"type":"perspective"
		}
	],
	"materials":[
		{
			"emissiveFactor":[
				1,
				1,
				1
			],
			"emissiveTexture":{
				"index":0
			},
			"name":"My_UV-texture_UVMAT",
			"pbrMetallicRoughness":{
				"baseColorFactor":[
					0,
					0,
					0,
					1
				]
			}
		}
	],
	"meshes":[
		{
			"name":"Plane.002",
			"primitives":[
				{
					"attributes":{
						"POSITION":0,
						"NORMAL":1,
						"TEXCOORD_0":2
					},
					"indices":3,
					"material":0
				}
			]
		}
	],
	"textures":[
		{
			"sampler":0,
			"source":0
		}
	],
	"images":[
		{
			"mimeType":"image/jpeg",
			"name":"texture",
			"uri":"texture.jpg"
		}
	],
	"accessors":[
		{
			"bufferView":0,
			"componentType":5126,
			"count":579,
			"max":[
				4.3607988357543945,
				3.175901174545288,
				4.412190914154053
			],
			"min":[
				-5.026413917541504,
				-0.052764661610126495,
				-4.969796180725098
			],
			"type":"VEC3"
		},
		{
			"bufferView":1,
			"componentType":5126,
			"count":579,
			"type":"VEC3"
		},
		{
			"bufferView":2,
			"componentType":5126,
			"count":579,
			"type":"VEC2"
		},
		{
			"bufferView":3,
			"componentType":5123,
			"count":927,
			"type":"SCALAR"
		}
	],
	"bufferViews":[
		{
			"buffer":0,
			"byteLength":6948,
			"byteOffset":0,
			"target":34962
		},
		{
			"buffer":0,
			"byteLength":6948,
			"byteOffset":6948,
			"target":34962
		},
		{
			"buffer":0,
			"byteLength":4632,
			"byteOffset":13896,
			"target":34962
		},
		{
			"buffer":0,
			"byteLength":1854,
			"byteOffset":18528,
			"target":34963
		}
	],
	"samplers":[
		{
			"magFilter":9729,
			"minFilter":9987
		}
	],
	"buffers":[
		{
			"byteLength":20384,
			"uri":"ofice.bin"
		}
	]
}
