{
	"asset":{
		"generator":"Khronos glTF Blender I/O v4.0.44",
		"version":"2.0"
	},
	"scene":0,
	"scenes":[
		{
			"name":"Scene",
			"nodes":[
				0,
				1,
				2,
				3,
				4,
				5,
				6,
				7,
				8,
				9,
				10,
				11,
				12,
				13
			]
		}
	],
	"nodes":[
		{
			"camera":0,
			"name":"2_CAM",
			"rotation":[
				-0.06807681173086166,
				-0.8232303857803345,
				-0.10107399523258209,
				0.5544739961624146
			],
			"translation":[
				-1.2228435277938843,
				1.3210692405700684,
				-2.0034639835357666
			]
		},
		{
			"name":"2_HANDLE",
			"rotation":[
				0,
				-0.48625898361206055,
				0,
				0.8738147616386414
			],
			"translation":[
				-1.2228435277938843,
				1.3210692405700684,
				-2.0034639835357666
			]
		},
		{
			"name":"2_ROT",
			"rotation":[
				0,
				-0.48625898361206055,
				0,
				0.8738147616386414
			]
		},
		{
			"name":"3_HANDLE",
			"rotation":[
				-0.0009064368787221611,
				-0.6892198920249939,
				-0.031007835641503334,
				0.7238878607749939
			],
			"translation":[
				-2.8229804039001465,
				1.2859665155410767,
				-1.7905347347259521
			]
		},
		{
			"camera":1,
			"name":"3_CAM",
			"rotation":[
				-0.004590341821312904,
				-0.7524541020393372,
				-0.00524442782625556,
				0.6586078405380249
			],
			"translation":[
				-2.8229804039001465,
				1.2859665155410767,
				-1.7905347347259521
			]
		},
		{
			"name":"3_ROT",
			"rotation":[
				-0.0009064381010830402,
				-0.6892198324203491,
				-0.031007835641503334,
				0.7238879203796387
			]
		},
		{
			"mesh":0,
			"name":"Plane4"
		},
		{
			"name":"4_HANDLE",
			"rotation":[
				0,
				-0.9997745752334595,
				0,
				0.02123260125517845
			],
			"translation":[
				-2.532956600189209,
				1.3210692405700684,
				0.23248551785945892
			]
		},
		{
			"camera":2,
			"name":"4_CAM",
			"rotation":[
				-0.004714297130703926,
				0.9832376837730408,
				0.18044841289520264,
				0.025687534362077713
			],
			"translation":[
				-2.532956600189209,
				1.3210692405700684,
				0.23248551785945892
			]
		},
		{
			"name":"4_ROT",
			"rotation":[
				0,
				-0.9997745752334595,
				0,
				0.021232720464468002
			]
		},
		{
			"camera":3,
			"name":"1_CAM",
			"rotation":[
				-0.010891901329159737,
				0.9319044351577759,
				0.36145108938217163,
				0.028081834316253662
			],
			"translation":[
				2.2061476707458496,
				1.3200000524520874,
				-2.275548219680786
			]
		},
		{
			"name":"1_HANDLE",
			"rotation":[
				0,
				0.9668582081794739,
				0,
				0.2553139626979828
			],
			"translation":[
				2.2061476707458496,
				1.3200000524520874,
				-2.275548219680786
			]
		},
		{
			"name":"1_ROT",
			"rotation":[
				0,
				0.9668582081794739,
				0,
				0.25531402230262756
			]
		},
		{
			"name":"NurbsPath",
			"translation":[
				0.36478888988494873,
				0,
				-2.146113872528076
			]
		}
	],
	"cameras":[
		{
			"name":"Camera.001",
			"perspective":{
				"aspectRatio":1.7777777777777777,
				"yfov":1.024778957977204,
				"zfar":1000,
				"znear":0.10000000149011612
			},
			"type":"perspective"
		},
		{
			"name":"Camera.002",
			"perspective":{
				"aspectRatio":1.7777777777777777,
				"yfov":1.024778957977204,
				"zfar":1000,
				"znear":0.10000000149011612
			},
			"type":"perspective"
		},
		{
			"name":"Camera.003",
			"perspective":{
				"aspectRatio":1.7777777777777777,
				"yfov":1.024778957977204,
				"zfar":1000,
				"znear":0.10000000149011612
			},
			"type":"perspective"
		},
		{
			"name":"Camera",
			"perspective":{
				"aspectRatio":1.7777777777777777,
				"yfov":1.024778957977204,
				"zfar":1000,
				"znear":0.10000000149011612
			},
			"type":"perspective"
		}
	],
	"materials":[
		{
			"emissiveFactor":[
				1,
				1,
				1
			],
			"emissiveTexture":{
				"index":0
			},
			"name":"My_UV-texture_UVMAT",
			"pbrMetallicRoughness":{
				"baseColorFactor":[
					0,
					0,
					0,
					1
				]
			}
		}
	],
	"meshes":[
		{
			"name":"Plane.002",
			"primitives":[
				{
					"attributes":{
						"POSITION":0,
						"NORMAL":1,
						"TEXCOORD_0":2
					},
					"indices":3,
					"material":0
				}
			]
		}
	],
	"textures":[
		{
			"sampler":0,
			"source":0
		}
	],
	"images":[
		{
			"mimeType":"image/jpeg",
			"name":"MyDollhouseTexture",
			"uri":"MyDollhouseTexture.jpg"
		}
	],
	"accessors":[
		{
			"bufferView":0,
			"componentType":5126,
			"count":550,
			"max":[
				4.3607988357543945,
				3.175901174545288,
				4.412190914154053
			],
			"min":[
				-4.976339340209961,
				-0.052764661610126495,
				-4.969796180725098
			],
			"type":"VEC3"
		},
		{
			"bufferView":1,
			"componentType":5126,
			"count":550,
			"type":"VEC3"
		},
		{
			"bufferView":2,
			"componentType":5126,
			"count":550,
			"type":"VEC2"
		},
		{
			"bufferView":3,
			"componentType":5123,
			"count":882,
			"type":"SCALAR"
		}
	],
	"bufferViews":[
		{
			"buffer":0,
			"byteLength":6600,
			"byteOffset":0,
			"target":34962
		},
		{
			"buffer":0,
			"byteLength":6600,
			"byteOffset":6600,
			"target":34962
		},
		{
			"buffer":0,
			"byteLength":4400,
			"byteOffset":13200,
			"target":34962
		},
		{
			"buffer":0,
			"byteLength":1764,
			"byteOffset":17600,
			"target":34963
		}
	],
	"samplers":[
		{
			"magFilter":9729,
			"minFilter":9987
		}
	],
	"buffers":[
		{
			"byteLength":19364,
			"uri":"ofice.bin"
		}
	]
}
